<svg width="800" height="300" viewBox="0 0 800 300" fill="none" xmlns="http://www.w3.org/2000/svg">
<rect x="4" y="4" width="792" height="292" rx="56" fill="#D9D9D9" stroke="black" stroke-width="8"/>
<path d="M335.9 102.7C335.7 102.767 335.5 102.867 335.3 103C335.1 103.067 334.9 103.1 334.7 103.1C334.167 103.1 333.6 102.7 333 101.9C328.733 96.5667 324.533 92.7333 320.4 90.4C316.267 88.0667 312 86.9 307.6 86.9C304.933 86.9 302.633 87.6 300.7 89C298.833 90.4 297.9 92.6 297.9 95.6C297.9 98.0667 298.667 100.1 300.2 101.7C301.733 103.3 303.7 104.633 306.1 105.7C308.567 106.7 311.067 107.567 313.6 108.3C317.4 109.367 321.133 110.567 324.8 111.9C328.533 113.233 331.9 114.833 334.9 116.7C337.9 118.5 340.3 120.733 342.1 123.4C343.9 126 344.8 129.167 344.8 132.9C344.8 137.433 343.633 141.467 341.3 145C339.033 148.533 335.733 151.3 331.4 153.3C327.067 155.3 321.833 156.3 315.7 156.3C312.7 156.3 309.867 155.9 307.2 155.1C304.6 154.367 302.067 153.4 299.6 152.2C299.067 151.933 298.567 151.8 298.1 151.8C297.5 151.8 297.2 152.133 297.2 152.8C297.2 153 297.267 153.367 297.4 153.9C297.6 154.367 297.7 154.767 297.7 155.1C297.7 155.833 297.133 156.2 296 156.2H291C289.8 156.2 288.967 155.733 288.5 154.8L276.4 132.1C276.133 131.567 276 131.167 276 130.9C276 130.167 276.367 129.6 277.1 129.2L281.5 126.7C281.7 126.567 281.9 126.467 282.1 126.4C282.3 126.333 282.5 126.3 282.7 126.3C283.367 126.3 283.933 126.7 284.4 127.5C288.933 134.367 293.933 139.467 299.4 142.8C304.933 146.133 310.567 147.8 316.3 147.8C320.633 147.8 323.967 146.833 326.3 144.9C328.633 142.9 329.8 140.4 329.8 137.4C329.8 134.467 329.067 132.167 327.6 130.5C326.133 128.833 323.867 127.433 320.8 126.3C317.733 125.167 313.8 123.9 309 122.5C305.733 121.567 302.5 120.433 299.3 119.1C296.1 117.767 293.2 116.167 290.6 114.3C288 112.367 285.9 110.1 284.3 107.5C282.767 104.833 282 101.7 282 98.1C282 93.7 283.1 90.0667 285.3 87.2C287.567 84.3333 290.6 82.2333 294.4 80.9C298.2 79.5 302.5 78.8 307.3 78.8C311.033 78.8 314.2 79.2667 316.8 80.2C319.4 81.1333 321.4 82 322.8 82.8C323.933 83.4667 324.7 83.8 325.1 83.8C325.433 83.8 325.6 83.6 325.6 83.2C325.6 82.8667 325.5 82.4 325.3 81.8C325.167 81.2 325.1 80.5667 325.1 79.9C325.1 78.9 325.7 78.4 326.9 78.4H330.5C331.7 78.4 332.533 78.9667 333 80.1L340 98C340.133 98.2667 340.233 98.5333 340.3 98.8C340.367 99 340.4 99.2 340.4 99.4C340.4 100 340.033 100.5 339.3 100.9L335.9 102.7ZM364.254 137.1C365.387 139.9 367.187 142.4 369.654 144.6C372.187 146.8 375.387 147.9 379.254 147.9C381.387 147.9 383.621 147.3 385.954 146.1C388.287 144.9 390.321 143.033 392.054 140.5C392.254 140.167 392.521 140 392.854 140C393.187 140 393.521 140.1 393.854 140.3C394.254 140.5 395.254 141.067 396.854 142C397.121 142.2 397.254 142.467 397.254 142.8C397.254 143.267 397.054 143.833 396.654 144.5C394.787 147.967 392.254 150.8 389.054 153C385.854 155.2 381.687 156.3 376.554 156.3C371.021 156.3 366.254 155.067 362.254 152.6C358.254 150.133 355.154 146.867 352.954 142.8C350.821 138.733 349.754 134.3 349.754 129.5C349.754 124.9 350.421 120.967 351.754 117.7C353.154 114.367 354.987 111.7 357.254 109.7C359.521 107.633 362.054 106.133 364.854 105.2C367.721 104.2 370.621 103.7 373.554 103.7C376.887 103.7 379.821 104.367 382.354 105.7C384.887 106.967 387.021 108.6 388.754 110.6C390.554 112.6 391.887 114.733 392.754 117C393.687 119.2 394.154 121.267 394.154 123.2C394.154 123.733 393.854 124.133 393.254 124.4L364.254 137.1ZM379.154 122.8C379.154 119.6 378.387 116.967 376.854 114.9C375.321 112.833 373.387 111.8 371.054 111.8C368.321 111.8 366.154 112.9 364.554 115.1C362.954 117.233 362.154 119.933 362.154 123.2C362.154 124.2 362.187 125.433 362.254 126.9C362.387 128.367 362.654 129.7 363.054 130.9L379.154 122.8ZM408.919 128.9C408.919 127.367 408.785 125.833 408.519 124.3C408.319 122.767 407.819 121.433 407.019 120.3C406.219 119.167 404.885 118.5 403.019 118.3C402.219 118.233 401.819 117.8 401.819 117V113.6C401.819 113.2 401.952 112.933 402.219 112.8C402.485 112.6 402.852 112.433 403.319 112.3C408.585 110.567 412.619 108.8 415.419 107C418.285 105.133 420.385 103.5 421.719 102.1C421.852 101.967 421.985 101.9 422.119 101.9H422.419C422.552 101.9 422.619 101.967 422.619 102.1V148.8C422.619 151.867 422.352 155 421.819 158.2C421.285 161.467 420.285 164.467 418.819 167.2C417.352 170 415.252 172.233 412.519 173.9C409.852 175.567 406.319 176.4 401.919 176.4C398.852 176.4 396.285 175.967 394.219 175.1C392.085 174.3 390.419 173.333 389.219 172.2C387.952 171.067 387.052 169.967 386.519 168.9C385.985 167.833 385.719 167.067 385.719 166.6C385.719 165.733 386.085 165.033 386.819 164.5L393.219 159.9C393.885 159.433 394.352 159.2 394.619 159.2C394.885 159.2 395.152 159.3 395.419 159.5C395.619 159.7 395.719 160.067 395.719 160.6C395.719 162.2 395.919 163.767 396.319 165.3C396.719 166.9 397.419 168.2 398.419 169.2C399.419 170.267 400.819 170.8 402.619 170.8C404.685 170.8 406.152 170.1 407.019 168.7C407.885 167.3 408.419 165.433 408.619 163.1C408.819 160.767 408.919 158.233 408.919 155.5V128.9ZM415.619 81C417.352 81 419.052 81.8333 420.719 83.5C422.385 85.1667 423.219 86.8333 423.219 88.5C423.219 90.1667 422.385 91.8333 420.719 93.5C419.052 95.1667 417.352 96 415.619 96C414.019 96 412.352 95.1667 410.619 93.5C408.952 91.9 408.119 90.2333 408.119 88.5C408.119 86.8333 408.952 85.1667 410.619 83.5C412.285 81.8333 413.952 81 415.619 81ZM456.592 103.7C460.392 103.7 463.892 104.467 467.092 106C470.359 107.467 473.159 109.5 475.492 112.1C477.826 114.633 479.626 117.5 480.892 120.7C482.226 123.833 482.892 127.1 482.892 130.5C482.892 135.433 481.726 139.867 479.392 143.8C477.059 147.667 473.992 150.733 470.192 153C466.392 155.2 462.259 156.3 457.792 156.3C453.992 156.3 450.492 155.567 447.292 154.1C444.092 152.633 441.292 150.667 438.892 148.2C436.559 145.667 434.726 142.8 433.392 139.6C432.126 136.333 431.492 132.933 431.492 129.4C431.492 124.533 432.626 120.167 434.892 116.3C437.159 112.433 440.192 109.367 443.992 107.1C447.792 104.833 451.992 103.7 456.592 103.7ZM460.892 148.2C462.159 148.2 463.559 147.867 465.092 147.2C466.626 146.533 467.959 145.367 469.092 143.7C470.292 142.033 470.892 139.733 470.892 136.8C470.892 134.467 470.426 131.9 469.492 129.1C468.626 126.233 467.392 123.5 465.792 120.9C464.259 118.233 462.426 116.067 460.292 114.4C458.226 112.667 455.959 111.8 453.492 111.8C450.759 111.8 448.392 112.833 446.392 114.9C444.392 116.9 443.392 119.667 443.392 123.2C443.392 125.467 443.826 128.033 444.692 130.9C445.626 133.767 446.859 136.533 448.392 139.2C449.992 141.8 451.859 143.967 453.992 145.7C456.126 147.367 458.426 148.2 460.892 148.2ZM548.975 149C549.975 149 550.475 149.5 550.475 150.5V153.5C550.475 154.5 549.975 155 548.975 155H521.775C520.775 155 520.275 154.5 520.275 153.5V150.5C520.275 149.5 520.775 149 521.775 149H522.075C523.942 149 525.275 148.1 526.075 146.3C526.875 144.433 527.275 142.167 527.275 139.5V122.4C527.275 119.067 526.842 116.6 525.975 115C525.108 113.333 523.142 112.5 520.075 112.5C517.608 112.5 515.175 113.233 512.775 114.7C510.442 116.167 508.808 117.967 507.875 120.1V139.5C507.875 142.167 508.475 144.433 509.675 146.3C510.942 148.1 512.808 149 515.275 149H515.475C516.475 149 516.975 149.5 516.975 150.5V153.5C516.975 154.5 516.475 155 515.475 155H486.375C485.375 155 484.875 154.5 484.875 153.5V150.5C484.875 149.5 485.375 149 486.375 149H486.575C489.042 149 490.875 148.1 492.075 146.3C493.275 144.433 493.875 142.167 493.875 139.5V102C493.875 100.2 493.742 98.4667 493.475 96.8C493.275 95.1333 492.775 93.7333 491.975 92.6C491.175 91.4 489.842 90.7 487.975 90.5C487.175 90.4333 486.775 90 486.775 89.2V85.8C486.775 85.4 486.875 85.1333 487.075 85C487.342 84.8 487.708 84.6333 488.175 84.5C491.308 83.4333 494.475 82.1667 497.675 80.7C500.942 79.2333 504.042 77.4 506.975 75.2C507.175 75.0667 507.342 75 507.475 75H507.575C507.708 75 507.775 75.0667 507.775 75.2V113.6C508.375 112.4 509.375 111.033 510.775 109.5C512.242 107.967 514.108 106.633 516.375 105.5C518.642 104.3 521.308 103.7 524.375 103.7C527.508 103.7 530.342 104.2 532.875 105.2C535.475 106.2 537.542 107.967 539.075 110.5C540.608 112.967 541.375 116.467 541.375 121V139.5C541.375 142.167 541.975 144.433 543.175 146.3C544.375 148.1 546.208 149 548.675 149H548.975ZM610.806 122.4V139.5C610.806 143.167 611.373 145.667 612.506 147C613.706 148.333 615.273 149 617.206 149H618.006C619.006 149 619.506 149.5 619.506 150.5V153.5C619.506 154.5 619.006 155 618.006 155H591.406C590.406 155 589.906 154.5 589.906 153.5V150.5C589.906 149.5 590.406 149 591.406 149H592.106C593.506 149 594.64 148.333 595.506 147C596.373 145.667 596.806 143.167 596.806 139.5V122.4C596.806 119.2 596.306 116.767 595.306 115.1C594.306 113.367 592.406 112.5 589.606 112.5C587.94 112.5 586.273 112.933 584.606 113.8C582.94 114.6 581.473 115.667 580.206 117C578.94 118.267 578.006 119.633 577.406 121.1V139.5C577.406 142.167 577.973 144.433 579.106 146.3C580.306 148.1 581.873 149 583.806 149H584.006C585.006 149 585.506 149.5 585.506 150.5V153.5C585.506 154.5 585.006 155 584.006 155H555.906C554.906 155 554.406 154.5 554.406 153.5V150.5C554.406 149.5 554.906 149 555.906 149H556.106C558.573 149 560.406 148.1 561.606 146.3C562.806 144.433 563.406 142.167 563.406 139.5V126.9C563.406 125.1 563.273 123.367 563.006 121.7C562.806 120.033 562.273 118.633 561.406 117.5C560.606 116.3 559.273 115.6 557.406 115.4C556.673 115.333 556.306 114.9 556.306 114.1V110.7C556.306 110.033 556.773 109.6 557.706 109.4C562.506 108.667 566.606 107.533 570.006 106C573.473 104.467 575.873 103.233 577.206 102.3C577.54 102.033 577.806 101.9 578.006 101.9H578.106C578.24 101.9 578.306 101.967 578.306 102.1C578.306 102.233 578.273 102.5 578.206 102.9L576.506 115.2C577.44 113.667 578.673 112.033 580.206 110.3C581.74 108.5 583.64 106.967 585.906 105.7C588.173 104.367 590.806 103.7 593.806 103.7C597.406 103.7 600.34 104.233 602.606 105.3C604.873 106.367 606.573 107.8 607.706 109.6C608.906 111.4 609.706 113.4 610.106 115.6C610.573 117.8 610.806 120.067 610.806 122.4Z" fill="#1E1E1E"/>
<path d="M375.9 183.7C375.7 183.767 375.5 183.867 375.3 184C375.1 184.067 374.9 184.1 374.7 184.1C374.167 184.1 373.6 183.7 373 182.9C368.733 177.567 364.533 173.733 360.4 171.4C356.267 169.067 352 167.9 347.6 167.9C344.933 167.9 342.633 168.6 340.7 170C338.833 171.4 337.9 173.6 337.9 176.6C337.9 179.067 338.667 181.1 340.2 182.7C341.733 184.3 343.7 185.633 346.1 186.7C348.567 187.7 351.067 188.567 353.6 189.3C357.4 190.367 361.133 191.567 364.8 192.9C368.533 194.233 371.9 195.833 374.9 197.7C377.9 199.5 380.3 201.733 382.1 204.4C383.9 207 384.8 210.167 384.8 213.9C384.8 218.433 383.633 222.467 381.3 226C379.033 229.533 375.733 232.3 371.4 234.3C367.067 236.3 361.833 237.3 355.7 237.3C352.7 237.3 349.867 236.9 347.2 236.1C344.6 235.367 342.067 234.4 339.6 233.2C339.067 232.933 338.567 232.8 338.1 232.8C337.5 232.8 337.2 233.133 337.2 233.8C337.2 234 337.267 234.367 337.4 234.9C337.6 235.367 337.7 235.767 337.7 236.1C337.7 236.833 337.133 237.2 336 237.2H331C329.8 237.2 328.967 236.733 328.5 235.8L316.4 213.1C316.133 212.567 316 212.167 316 211.9C316 211.167 316.367 210.6 317.1 210.2L321.5 207.7C321.7 207.567 321.9 207.467 322.1 207.4C322.3 207.333 322.5 207.3 322.7 207.3C323.367 207.3 323.933 207.7 324.4 208.5C328.933 215.367 333.933 220.467 339.4 223.8C344.933 227.133 350.567 228.8 356.3 228.8C360.633 228.8 363.967 227.833 366.3 225.9C368.633 223.9 369.8 221.4 369.8 218.4C369.8 215.467 369.067 213.167 367.6 211.5C366.133 209.833 363.867 208.433 360.8 207.3C357.733 206.167 353.8 204.9 349 203.5C345.733 202.567 342.5 201.433 339.3 200.1C336.1 198.767 333.2 197.167 330.6 195.3C328 193.367 325.9 191.1 324.3 188.5C322.767 185.833 322 182.7 322 179.1C322 174.7 323.1 171.067 325.3 168.2C327.567 165.333 330.6 163.233 334.4 161.9C338.2 160.5 342.5 159.8 347.3 159.8C351.033 159.8 354.2 160.267 356.8 161.2C359.4 162.133 361.4 163 362.8 163.8C363.933 164.467 364.7 164.8 365.1 164.8C365.433 164.8 365.6 164.6 365.6 164.2C365.6 163.867 365.5 163.4 365.3 162.8C365.167 162.2 365.1 161.567 365.1 160.9C365.1 159.9 365.7 159.4 366.9 159.4H370.5C371.7 159.4 372.533 159.967 373 161.1L380 179C380.133 179.267 380.233 179.533 380.3 179.8C380.367 180 380.4 180.2 380.4 180.4C380.4 181 380.033 181.5 379.3 181.9L375.9 183.7ZM404.254 218.1C405.387 220.9 407.187 223.4 409.654 225.6C412.187 227.8 415.387 228.9 419.254 228.9C421.387 228.9 423.621 228.3 425.954 227.1C428.287 225.9 430.321 224.033 432.054 221.5C432.254 221.167 432.521 221 432.854 221C433.187 221 433.521 221.1 433.854 221.3C434.254 221.5 435.254 222.067 436.854 223C437.121 223.2 437.254 223.467 437.254 223.8C437.254 224.267 437.054 224.833 436.654 225.5C434.787 228.967 432.254 231.8 429.054 234C425.854 236.2 421.687 237.3 416.554 237.3C411.021 237.3 406.254 236.067 402.254 233.6C398.254 231.133 395.154 227.867 392.954 223.8C390.821 219.733 389.754 215.3 389.754 210.5C389.754 205.9 390.421 201.967 391.754 198.7C393.154 195.367 394.987 192.7 397.254 190.7C399.521 188.633 402.054 187.133 404.854 186.2C407.721 185.2 410.621 184.7 413.554 184.7C416.887 184.7 419.821 185.367 422.354 186.7C424.887 187.967 427.021 189.6 428.754 191.6C430.554 193.6 431.887 195.733 432.754 198C433.687 200.2 434.154 202.267 434.154 204.2C434.154 204.733 433.854 205.133 433.254 205.4L404.254 218.1ZM419.154 203.8C419.154 200.6 418.387 197.967 416.854 195.9C415.321 193.833 413.387 192.8 411.054 192.8C408.321 192.8 406.154 193.9 404.554 196.1C402.954 198.233 402.154 200.933 402.154 204.2C402.154 205.2 402.187 206.433 402.254 207.9C402.387 209.367 402.654 210.7 403.054 211.9L419.154 203.8ZM461.319 196.5C463.119 192.633 465.619 189.7 468.819 187.7C472.019 185.7 475.385 184.7 478.919 184.7C482.052 184.7 484.719 185.567 486.919 187.3C489.119 189.033 490.219 191.6 490.219 195C490.219 196.467 490.085 197.767 489.819 198.9C489.552 200.033 488.819 200.867 487.619 201.4L478.219 205.2C477.819 205.333 477.519 205.4 477.319 205.4C476.719 205.4 476.419 205.1 476.419 204.5C476.419 204.3 476.485 204 476.619 203.6C477.019 202.667 477.252 201.767 477.319 200.9C477.452 200.033 477.519 199.267 477.519 198.6C477.519 196.8 477.052 195.5 476.119 194.7C475.252 193.833 474.152 193.4 472.819 193.4C471.285 193.4 469.852 193.867 468.519 194.8C467.185 195.733 466.019 196.867 465.019 198.2C464.019 199.533 463.285 200.833 462.819 202.1V220.5C462.819 223.167 463.419 225.433 464.619 227.3C465.819 229.1 467.652 230 470.119 230H470.319C471.319 230 471.819 230.5 471.819 231.5V234.5C471.819 235.5 471.319 236 470.319 236H441.219C440.219 236 439.719 235.5 439.719 234.5V231.5C439.719 230.5 440.219 230 441.219 230H441.419C443.885 230 445.719 229.1 446.919 227.3C448.119 225.433 448.719 223.167 448.719 220.5V207.9C448.719 206.1 448.585 204.367 448.319 202.7C448.119 201.033 447.619 199.633 446.819 198.5C446.019 197.3 444.685 196.6 442.819 196.4C442.019 196.333 441.619 195.9 441.619 195.1V191.7C441.619 191.033 442.119 190.6 443.119 190.4C447.852 189.667 451.985 188.5 455.519 186.9C459.119 185.3 461.552 184.033 462.819 183.1C463.019 182.967 463.185 182.9 463.319 182.9H463.519C463.652 182.9 463.719 182.967 463.719 183.1C463.719 183.167 463.619 183.667 463.419 184.6C463.285 185.533 463.085 186.733 462.819 188.2C462.619 189.6 462.352 191.067 462.019 192.6C461.752 194.067 461.519 195.367 461.319 196.5ZM517.881 184.7C521.681 184.7 525.181 185.467 528.381 187C531.648 188.467 534.448 190.5 536.781 193.1C539.115 195.633 540.915 198.5 542.181 201.7C543.515 204.833 544.181 208.1 544.181 211.5C544.181 216.433 543.015 220.867 540.681 224.8C538.348 228.667 535.281 231.733 531.481 234C527.681 236.2 523.548 237.3 519.081 237.3C515.281 237.3 511.781 236.567 508.581 235.1C505.381 233.633 502.581 231.667 500.181 229.2C497.848 226.667 496.015 223.8 494.681 220.6C493.415 217.333 492.781 213.933 492.781 210.4C492.781 205.533 493.915 201.167 496.181 197.3C498.448 193.433 501.481 190.367 505.281 188.1C509.081 185.833 513.281 184.7 517.881 184.7ZM522.181 229.2C523.448 229.2 524.848 228.867 526.381 228.2C527.915 227.533 529.248 226.367 530.381 224.7C531.581 223.033 532.181 220.733 532.181 217.8C532.181 215.467 531.715 212.9 530.781 210.1C529.915 207.233 528.681 204.5 527.081 201.9C525.548 199.233 523.715 197.067 521.581 195.4C519.515 193.667 517.248 192.8 514.781 192.8C512.048 192.8 509.681 193.833 507.681 195.9C505.681 197.9 504.681 200.667 504.681 204.2C504.681 206.467 505.115 209.033 505.981 211.9C506.915 214.767 508.148 217.533 509.681 220.2C511.281 222.8 513.148 224.967 515.281 226.7C517.415 228.367 519.715 229.2 522.181 229.2ZM634.299 186C635.299 186 635.799 186.5 635.799 187.5V190.5C635.799 191.5 635.299 192 634.299 192H632.799C631.733 192 630.766 192.4 629.899 193.2C629.099 194 628.133 195.667 626.999 198.2L611.099 234.9C610.833 235.633 610.333 236 609.599 236H603.899C603.166 236 602.633 235.633 602.299 234.9L589.099 204.3L575.899 234.9C575.633 235.633 575.099 236 574.299 236H568.699C567.966 236 567.433 235.633 567.099 234.9L551.299 198.3C550.233 195.767 549.333 194.1 548.599 193.3C547.866 192.433 546.833 192 545.499 192H545.299C544.299 192 543.799 191.5 543.799 190.5V187.5C543.799 186.5 544.299 186 545.299 186H568.399C569.399 186 569.899 186.5 569.899 187.5V190.5C569.899 191.5 569.399 192 568.399 192H568.199C566.933 192 566.033 192.267 565.499 192.8C565.033 193.267 564.799 193.967 564.799 194.9C564.799 195.767 564.999 196.767 565.399 197.9C565.866 199.033 566.366 200.233 566.899 201.5L574.899 220.2L583.499 198.9C584.366 196.9 584.799 195.3 584.799 194.1C584.799 192.7 584.099 192 582.699 192H580.499C579.633 192 579.199 191.5 579.199 190.5V187.5C579.199 186.5 579.666 186 580.599 186H604.599C605.599 186 606.099 186.5 606.099 187.5V190.5C606.099 191.5 605.599 192 604.599 192H603.399C602.133 192 601.233 192.267 600.699 192.8C600.233 193.267 599.999 193.967 599.999 194.9C599.999 195.767 600.199 196.767 600.599 197.9C600.999 199.033 601.466 200.233 601.999 201.5L610.099 220.2L618.699 198.9C619.566 196.9 619.999 195.3 619.999 194.1C619.999 192.7 619.299 192 617.899 192H615.899C614.899 192 614.399 191.5 614.399 190.5V187.5C614.399 186.5 614.899 186 615.899 186H634.299ZM668.063 230C669.063 230 669.563 230.5 669.563 231.5V234.5C669.563 235.5 668.997 236 667.863 236H639.563C638.43 236 637.863 235.5 637.863 234.5V231.5C637.863 230.5 638.363 230 639.363 230H639.563C642.03 230 643.83 229.1 644.963 227.3C646.163 225.433 646.763 223.167 646.763 220.5V209.9C646.763 208.367 646.63 206.833 646.363 205.3C646.163 203.767 645.663 202.433 644.863 201.3C644.063 200.167 642.73 199.5 640.863 199.3C640.063 199.233 639.663 198.8 639.663 198V194.6C639.663 194.2 639.797 193.933 640.063 193.8C640.33 193.6 640.697 193.433 641.163 193.3C646.43 191.567 650.463 189.8 653.263 188C656.13 186.133 658.23 184.5 659.563 183.1C659.697 182.967 659.83 182.9 659.963 182.9H660.263C660.397 182.9 660.463 182.967 660.463 183.1V220.4C660.463 223.067 661.063 225.333 662.263 227.2C663.463 229.067 665.297 230 667.763 230H668.063ZM653.763 162C655.497 162 657.197 162.833 658.863 164.5C660.53 166.167 661.363 167.833 661.363 169.5C661.363 171.167 660.53 172.833 658.863 174.5C657.197 176.167 655.497 177 653.763 177C652.163 177 650.497 176.167 648.763 174.5C647.097 172.9 646.263 171.233 646.263 169.5C646.263 167.833 647.097 166.167 648.763 164.5C650.43 162.833 652.097 162 653.763 162ZM732.131 230C732.998 230 733.431 230.5 733.431 231.5V234.5C733.431 235.5 732.931 236 731.931 236H707.431C706.431 236 705.931 235.5 705.931 234.5V231.4C705.931 230.467 706.365 230 707.231 230H708.731C709.398 230 709.998 229.867 710.531 229.6C711.131 229.333 711.431 228.967 711.431 228.5C711.431 228.033 711.165 227.533 710.631 227L697.431 212.7L695.331 214.6V220.5C695.331 223.1 695.431 225.1 695.631 226.5C695.898 227.833 696.398 228.767 697.131 229.3C697.931 229.767 699.131 230 700.731 230C701.731 230 702.231 230.5 702.231 231.5V234.5C702.231 235.5 701.731 236 700.731 236H674.031C673.031 236 672.531 235.5 672.531 234.5V231.5C672.531 230.5 673.031 230 674.031 230C676.498 230 678.331 229.1 679.531 227.3C680.731 225.433 681.331 223.167 681.331 220.5V183C681.331 181.2 681.198 179.467 680.931 177.8C680.731 176.133 680.198 174.733 679.331 173.6C678.531 172.4 677.198 171.7 675.331 171.5C674.598 171.433 674.231 171 674.231 170.2V166.8C674.231 166.4 674.331 166.133 674.531 166C674.798 165.8 675.165 165.633 675.631 165.5C680.965 163.767 685.098 162.033 688.031 160.3C690.965 158.567 693.098 157.2 694.431 156.2C694.631 156.067 694.798 156 694.931 156H695.131C695.265 156 695.331 156.067 695.331 156.2V205.8L707.531 194.7C708.065 194.167 708.331 193.7 708.331 193.3C708.331 192.433 707.665 192 706.331 192H703.331C702.465 192 702.031 191.5 702.031 190.5V187.5C702.031 186.5 702.531 186 703.531 186H725.731C726.731 186 727.231 186.5 727.231 187.5V190.5C727.231 191.5 726.798 192 725.931 192H724.731C722.798 192 721.065 192.5 719.531 193.5C718.065 194.5 716.031 196.167 713.431 198.5L705.731 205.4L727.131 226.9C728.265 228.033 729.165 228.833 729.831 229.3C730.498 229.767 731.165 230 731.831 230H732.131Z" fill="#1E1E1E"/>
<path d="M270.341 172.58C262.303 229.77 219.382 265.332 167.844 258.088C115.794 250.773 74.432 202.048 82.3958 145.385C90.4693 87.9415 139.026 43.5939 190.341 50.8061C241.74 58.0301 278.4 115.235 270.341 172.58Z" fill="#D9D9D9" stroke="#1E1E1E" stroke-width="8"/>
<path d="M271.472 150.836C273.882 210.494 230.574 251.583 176.832 253.848C150.214 254.969 128.905 244.243 113.822 225.799C98.6552 207.252 89.6639 180.717 88.3819 150.292C87.7182 134.541 85.8908 121.477 84.1914 110.591C83.912 108.801 83.6381 107.08 83.3744 105.423C82.0142 96.8787 80.9261 90.0434 80.7584 84.226C80.5624 77.4301 81.6641 72.7173 84.6537 68.8764C87.7411 64.9099 93.292 61.2857 103.321 57.7754C131.911 47.769 171.567 54.2504 205.595 72.083C239.558 89.8812 266.614 118.287 271.472 150.836Z" fill="#1E1E1E" stroke="#1E1E1E" stroke-width="8"/>
<path d="M270 161.317C270 214.823 228.843 257.844 178.5 257.844C128.157 257.844 87 214.823 87 161.317C87 134.77 97.1175 117.985 113.144 107.62C129.472 97.058 152.428 92.8442 178.5 92.8442C204.572 92.8442 227.528 97.058 243.856 107.62C259.882 117.985 270 134.77 270 161.317Z" fill="#D9D9D9" stroke="#1E1E1E" stroke-width="8"/>
<mask id="path-7-inside-1_2_28" fill="white">
<path fill-rule="evenodd" clip-rule="evenodd" d="M177.516 261.844C219.885 261.844 268 213.643 268 182.439C268 151.235 219.885 148.844 177.516 148.844C135.148 148.844 89 158.361 89 189.565C89 220.769 135.148 261.844 177.516 261.844ZM176.885 215.62C204.5 215.62 226.885 203.64 226.885 188.862C226.885 176.12 206.528 176.399 183.219 176.717C179.493 176.768 175.691 176.82 171.885 176.82C167.923 176.82 164.171 176.764 160.651 176.711C139.64 176.395 126.885 176.204 126.885 188.862C126.885 203.64 149.271 215.62 176.885 215.62Z"/>
</mask>
<path fill-rule="evenodd" clip-rule="evenodd" d="M177.516 261.844C219.885 261.844 268 213.643 268 182.439C268 151.235 219.885 148.844 177.516 148.844C135.148 148.844 89 158.361 89 189.565C89 220.769 135.148 261.844 177.516 261.844ZM176.885 215.62C204.5 215.62 226.885 203.64 226.885 188.862C226.885 176.12 206.528 176.399 183.219 176.717C179.493 176.768 175.691 176.82 171.885 176.82C167.923 176.82 164.171 176.764 160.651 176.711C139.64 176.395 126.885 176.204 126.885 188.862C126.885 203.64 149.271 215.62 176.885 215.62Z" fill="#1E1E1E"/>
<path d="M183.219 176.717L183.11 168.718L183.11 168.718L183.219 176.717ZM160.651 176.711L160.771 168.712L160.771 168.712L160.651 176.711ZM260 182.439C260 188.318 257.676 195.772 252.902 203.992C248.186 212.113 241.383 220.449 233.228 227.958C216.698 243.177 195.927 253.844 177.516 253.844V269.844C201.474 269.844 225.945 256.411 244.065 239.728C253.234 231.286 261.108 221.721 266.738 212.028C272.31 202.434 276 192.161 276 182.439H260ZM177.516 156.844C198.805 156.844 220.44 157.478 236.636 161.683C244.711 163.78 250.666 166.582 254.496 169.997C258.04 173.157 260 177.016 260 182.439H276C276 172.26 271.946 164.119 265.144 158.054C258.628 152.245 249.907 148.598 240.657 146.197C222.203 141.405 198.596 140.844 177.516 140.844V156.844ZM97 189.565C97 179.034 104.446 170.863 120.166 164.998C135.704 159.202 156.736 156.844 177.516 156.844V140.844C155.928 140.844 132.703 143.245 114.574 150.008C96.6284 156.702 81 168.891 81 189.565H97ZM177.516 253.844C158.74 253.844 138.37 244.626 122.522 231.286C106.402 217.717 97 201.678 97 189.565H81C81 208.656 94.672 228.757 112.218 243.526C130.036 258.525 153.925 269.844 177.516 269.844V253.844ZM218.885 188.862C218.885 191.872 216.477 196.442 208.466 200.73C200.792 204.836 189.641 207.62 176.885 207.62V223.62C191.744 223.62 205.593 220.414 216.016 214.836C226.101 209.439 234.885 200.629 234.885 188.862H218.885ZM183.329 184.717C195.297 184.553 205.29 184.452 212.335 185.758C215.848 186.409 217.65 187.256 218.441 187.868C218.81 188.154 218.885 188.216 218.885 188.862H234.885C234.885 183.137 232.416 178.455 228.24 175.22C224.485 172.311 219.741 170.858 215.251 170.026C206.291 168.365 194.451 168.563 183.11 168.718L183.329 184.717ZM171.885 184.82C175.755 184.82 179.611 184.767 183.329 184.717L183.11 168.718C179.375 168.769 175.628 168.82 171.885 168.82V184.82ZM160.531 184.71C164.044 184.763 167.854 184.82 171.885 184.82V168.82C167.992 168.82 164.298 168.765 160.771 168.712L160.531 184.71ZM134.885 188.862C134.885 187.942 135.002 187.415 135.087 187.154C135.161 186.923 135.225 186.85 135.25 186.821C135.313 186.749 135.835 186.195 137.881 185.669C142.399 184.508 149.522 184.545 160.531 184.71L160.771 168.712C150.769 168.562 141.009 168.345 133.897 170.173C130.128 171.142 126.149 172.895 123.163 176.337C120.065 179.909 118.885 184.308 118.885 188.862H134.885ZM176.885 207.62C164.13 207.62 152.978 204.836 145.305 200.73C137.294 196.442 134.885 191.872 134.885 188.862H118.885C118.885 200.629 127.67 209.439 137.755 214.836C148.178 220.414 162.027 223.62 176.885 223.62V207.62Z" fill="#1E1E1E" mask="url(#path-7-inside-1_2_28)"/>
</svg>
